<svg version="1" xmlns="http://www.w3.org/2000/svg" width="933.333" height="933.333" viewBox="0 0 700.000000 700.000000"><path d="M341.7 16.6c-.1.1-6.2.4-13.6.8-7.4.4-13.7.8-14 1-.3.2-3.3.7-6.6 1-21.3 2.2-53.4 10.3-77.1 19.6-27.2 10.6-54.7 25.8-77.9 43-62.6 46.4-107 113.1-125.4 188.1-1.6 6.8-3.3 14-3.6 15.9-.3 1.9-1 5.7-1.5 8.5-.5 2.7-1.2 7.7-1.6 11-.3 3.3-.8 6.8-1 7.8-.6 3.5-1.7 24.5-1.7 34.2-.1 15 1.4 38 2.5 39 1.1 1.1 96-61.5 137.3-90.5 56.2-39.3 98.2-71.5 135-103.1 19.3-16.6 43.4-39.8 56.2-54.2 2.9-3.1 5.6-5.7 6-5.6.4 0 3.3 2.9 6.3 6.5 3 3.5 11.6 12.4 19 19.7 12.3 12.1 18 17.4 29.5 27.8 6.5 5.8 34.2 28.8 45.1 37.4 14.5 11.6 16 12.7 26 20.2 5 3.7 10.4 7.8 12 9 7.5 5.7 32.5 24.1 36.4 26.8 2.4 1.6 13.9 9.7 25.6 18 38.6 27.3 123.6 83.5 126.3 83.5.4 0 .8-.6.8-1.3 0-.6.4-6.2.9-12.2 1.2-16.5.6-47.8-1-56.2-.3-1.2-.7-4.6-1-7.5-.4-2.9-.8-6.2-1-7.3-.2-1.1-.7-4-1.1-6.5-.4-2.5-.9-5.2-1-6-13-65-44.1-123.4-90-169.5-22.7-22.7-38.9-35.6-64.5-51.2-25-15.2-46.9-24.6-84.5-36.3-3.8-1.2-19.3-4.8-23.7-5.5-1.8-.3-4.4-.7-5.8-1-4.7-.9-7.5-1.3-21-3.1-7.6-1-45.4-2.5-46.3-1.8zM141 256v39.5l-3.7 2.5c-2 1.4-11.3 7.8-20.6 14.3-9.3 6.5-17.2 11.5-17.6 11.2-.8-.9-.8-105.9 0-106.5.4-.3 10-.5 21.3-.5H141V256z"/><path d="M344.5 223.3c-51.4 35.5-148.6 90.4-213 120.2C112.9 352.1 89 363 82 366c-4.1 1.7-9.1 3.9-11 4.7-5.3 2.5-31.4 13.4-32.5 13.7-.5.1-2.6.9-4.5 1.8-1.9.8-5.7 2.3-8.3 3.3l-4.8 1.8.6 4.6c.3 2.5.7 5.7 1 7.1.3 1.4.7 4.1 1 6 2.4 14.3 10.4 43.2 16 58 3.7 9.6 12 27.9 16.8 37 5.4 10.2 18 30.9 23.1 37.6 1.7 2.3 4 5.5 5.1 7 11.5 15.9 33.7 39.5 52 55.1 7.2 6.1 23.6 18.5 24 18.1.2-.2.6-3.2.9-6.8.4-3.6.9-7.6 1.1-9 .2-1.4.7-5.2 1-8.5.3-3.3.7-7.4.9-9 .2-1.7.7-6.3 1.1-10.3l.7-7.2h-17.4l.7-4.3c.4-2.3.9-4.9 1-5.7.2-.8.6-3.5.9-6 .3-2.5.8-5.5 1-6.7.3-1.1.8-4.3 1.2-7 .3-2.6.8-5.7 1-6.8.2-1.1 2-11.7 3.9-23.5 2-11.8 3.8-22.6 4-24 .2-1.4 1.1-7 2-12.4.9-5.5 1.9-10.4 2.2-10.9.3-.5 0-.8-.7-.5-.7.2-1.4 1.1-1.6 1.9-.1.7-3.7 11.3-7.9 23.4-4.2 12.1-9.9 28.5-12.6 36.5-3.1 8.9-5.8 15.2-7.1 16.3-3.3 2.7-8.2 1.4-9.7-2.6-.7-1.8-.4-4 1.4-11.7.2-.8 1.6-6.5 3-12.5 1.4-6.1 2.8-11.7 3-12.5.5-2.4 3.6-15.4 4-17 1.4-6.2 9-33.7 10.7-38.5 7.8-23.2 17-29.4 43.2-29.6 20.1-.1 29.5 2.8 36.7 11 2.8 3.1 11.2 18.8 26.4 49.2l22.4 44.5 11.8 12c8.5 8.6 13.4 12.7 17.6 14.8 5.5 2.7 6.2 2.8 11.5 1.8 3.2-.6 10.4-.8 16.2-.5 20 1 19 1.1 24.6-2.8 5-3.5 11.5-9.1 15.9-13.8 1.2-1.2 3.1-4.7 4.1-7.7 2.2-6.4 7.6-13.9 12.3-17.1 5.3-3.6 10.7-4.7 23.1-4.8 14.6-.2 21.7 1.8 28.3 7.9l2.8 2.6.8-2.3c.4-1.2 5.4-16 11.1-32.9 15.5-46.3 21-55.8 35.2-60.8 7.4-2.6 13.2-3.3 27.3-3.3 17.7.1 27.9 3.2 36.2 11.2 3.5 3.3 7.6 9.4 8.5 12.6.4 1.1 2.8 7.8 5.6 15 7.4 19.6 22.2 63.9 22.2 66.8 0 1.5-1 3.3-2.5 4.6-2.2 1.6-3.1 1.8-5.7.9-3.1-1.1-5.3-5.1-18-32.8-5.5-12.1-12.3-26.5-15-32-2.5-5.1-2.7-5.3-2.8-2.5-.1 1.6-.3 4.6-.5 6.5-.3 3.4-.9 15.3-2.1 38.5-.5 10.5-.3 11.8 4.1 30.5 2.5 10.7 6.6 28.3 9.1 39s4.8 20.4 5 21.5c.3 1.1.7 3.1 1 4.5.8 3.6 1 3.6 5.1 0 12.6-10.8 32.5-31.8 41.8-44 2.7-3.6 5.2-6.7 5.5-7 1.4-1.2 17-25.2 21.2-32.5 14.6-25.7 26.4-54.7 33.8-83 1.6-6.1 3.1-12.4 3.3-14 .3-1.7 1.1-5.5 1.7-8.5 1.2-6 1.7-9.2 2.6-16l.6-4.5-4.8-2.2c-2.7-1.2-10.1-4.3-16.4-6.8-91.9-37.4-205.4-97.1-284.3-149.6-11.5-7.7-21.1-13.9-21.5-13.9-.4.1-4.8 2.9-9.7 6.3zm3.2 71.9l-.2 15.3h-51l-.1-14.5c0-8 .1-14.8.3-15.3.2-.4 11.8-.7 25.8-.7h25.4l-.2 15.2zm64.7.3v15l-25.7.1H361V280l25.7.2 25.8.3-.1 15zm-64.6 50.3l-.1 20.7h-51.2l-.1-20.8V325H348l-.2 20.8zm64.7-1.3c.1 10.4-.2 19.7-.6 20.5-.6 1.3-4.3 1.5-25.1 1.4-13.3-.1-24.6-.2-25-.3-.5 0-.8-9.3-.8-20.6V325l25.7.2 25.7.3.1 19zm112.5 9c9.9 2.2 18.4 12.5 19.4 23.5 1.4 16.4-11.6 30.3-27.8 29.6-24.4-1.1-35.3-29-18.1-46.3 7.3-7.3 15.3-9.3 26.5-6.8zm-319.3 5.1c20.2 9.6 19.8 38.6-.6 48.7-6.3 3-17.8 3.1-23.7 0-9.4-5-14.8-13.8-14.8-24.2.1-12.6 7.1-22.4 18.8-26 7.4-2.3 13.1-1.9 20.3 1.5zm218.2 99.9c13 6.7 14.9 24.9 3.6 34.2-13.3 11-33.6 1.4-33.5-15.9.1-11.9 10-21.1 21.7-20.3 2.8.2 6.5 1.1 8.2 2zm-85 49c6.3 3.2 9.8 8.1 10.7 14.9 1.1 7.9-2.7 15.6-9.7 19.5-10 5.6-22.6 1.6-27.1-8.7-6.2-14 4.3-28.9 19.4-27.6 2.1.2 5.1 1 6.7 1.9z"/><path d="M477.7 473.7c-4.7 10.4-9.8 21.5-11.3 24.8-2.6 5.9-8.7 19.1-12.5 27.1l-2 4.2 9.2 26.8c10.8 31.9 10.8 31.8 7.9 33.4-3.7 2-6.5.5-8.7-4.7-12.1-28.5-22.2-51.3-22.6-51.3-.2 0-.4 6.9-.6 15.2-.2 8.4-.4 18-.5 21.3-.3 6.1.8 11.7 10.4 57.5 2.9 13.5 5.8 27.3 6.4 30.8.7 3.4 1.5 6.4 1.7 6.7.7.6 19-5.9 27-9.5 2.7-1.2 2.7-1.4 2.9-12.4.1-6.1.3-15.4.5-20.6.2-5.2.6-17.6.9-27.5.3-9.9.9-27.5 1.3-39 .9-27.5.8-57.3-.1-81.5-.4-10.7-.9-19.6-1-19.8-.2-.1-4.2 8.2-8.9 18.5zM221 458.1c0 .6 1.3 8.6 3 17.9.5 3 1.7 10 2.5 15.5 1.7 10.7 2.3 13.8 2.9 17 .5 2.8 1.7 10 2.1 12.8.1 1.2.8 5.3 1.5 9.2.6 3.8 1.3 8.6 1.6 10.5.2 1.9.7 4.6.9 6 .3 1.4.8 4.1 1.1 6 .3 1.9.9 5.9 1.4 8.9 1.7 9.6 2.1 9.1-7.5 9.1-4.7 0-8.5.2-8.5.4s.7 3.9 1.5 8.2c.8 4.4 1.7 9.7 2 11.9.4 2.2.8 5.1 1.1 6.5.6 3.4 8.3 49.6 9.1 54 .3 1.9.7 4.2.8 5 .2.8.4 2.2.4 3.1.2 3.1 36.8 13.4 61.8 17.4 3.9.6 4.1.5 3.6-1.5-.5-1.7 1-18.6 2.2-25 .2-.8.6-4.4 1-8 .3-3.6.8-7.2 1-8 .2-.8.7-4.2 1-7.5.3-3.3 1.2-10.5 1.9-16 .7-5.4 1.1-12.4 1-15.5-.8-16-1.3-23.7-1.9-25.1-.3-.9-3.3-3.1-6.7-5-7.1-4-13.3-10.5-22.9-24.1-3.9-5.5-7.3-9.7-7.6-9.4-1.5 1.4-4.7-2.5-13.2-16.1-7.6-12.2-16.5-26.3-35.2-55.8-1-1.7-1.9-2.7-1.9-2.4zM389.1 544.5c-2.4 5.5-5.2 11.8-6.2 14-.9 2.2-4 9.2-6.8 15.4-6.6 15.2-8.2 16.9-12.5 13.8-2.5-1.8-2.3-10.5.4-18.6 1.2-3.5 1.9-6.5 1.7-6.7-.2-.2-2.9 1-5.9 2.6-7.6 4.1-7.9 5.2-8.2 29.5-.1 10.6-.6 8.1 12.5 62 2.3 9.3 4.1 19.1 4.2 21.7 0 2.6.3 4.6.6 4.3.4-.2 3.7-.5 7.4-.6 3.6-.1 7-.5 7.6-.8 1-.7 1.7-4.6 2.6-15.6.8-8.7 1.3-14.8 2-20 .2-2.2.7-6.7.9-10 .3-3.3.8-8.5 1.1-11.5.3-3 .7-7.5.9-10 .8-9.1 1.7-17.6 2.3-22 .8-5.7 1-33.3.3-47l-.5-10.5-4.4 10zM518 546c-.1 1.9-.3 4.2-.5 5-.1.8-.6 4.6-.9 8.5-.4 3.8-.9 8.3-1.1 10-.7 4.8-2.5 21.5-3 28-.3 3.3-.8 7.1-1 8.5-.2 1.4-.7 5.8-1 9.8-.4 4.1-.8 8.1-1 9.1-.2.9-.6 4.8-1 8.6-.3 3.8-.7 7.2-.8 7.6-.8 2.9 12.3-4.3 30.6-16.9 7.4-5.1 7.6-5.3 6.6-8-.6-1.5-3.9-10.8-7.4-20.7-15.3-43.6-17.4-49.4-18.4-51.2-.9-1.5-1.1-1.3-1.1 1.7zM190 571.7c0 .3-2.7 13.5-6.1 29.2-3.3 15.7-6.1 29.2-6.2 30-.3 2 29.1 18.7 40.4 23l2.7 1-2.5-8.7c-1.3-4.8-3-11-3.8-13.7-1.3-4.9-16.1-56.4-17.1-59.8-.4-1.2-1.6-1.7-4-1.7-1.9 0-3.4.3-3.4.7zM412.5 610.8c-1 6.4-2 12.1-2.1 12.7-.1.5-.5 3-.8 5.5-.4 2.5-.9 5.2-1.1 6-.2.8-.7 3.3-1 5.5-.3 2.2-1.8 11.6-3.4 20.8l-2.8 16.8 4.1-.6c6-1 31-6.6 31.5-7.1.3-.2-3-11.3-7.3-24.7-4.3-13.3-9.3-29.1-11.1-35.1-1.9-5.9-3.6-11-3.8-11.2-.2-.2-1.2 4.9-2.2 11.4zM330 625.1c-.7 2.4-2.5 9.1-4 14.9-5.4 20.1-9.2 34.5-9.4 35.7-.1.7-.5 1.6-.9 1.9-1.1 1.2-.8 3.1.6 3.1 14 .6 31.7 1.6 33.5 1.8 2.8.5 5.8-.5 4.4-1.4-.5-.3-5.7-13.9-11.6-30.1-5.9-16.2-10.9-29.6-11.1-29.8-.2-.2-.9 1.6-1.5 3.9z"/></svg>