<?xml version="1.0" encoding="utf-8"?>
<!-- Generator: Adobe Illustrator 19.0.0, SVG Export Plug-In . SVG Version: 6.00 Build 0)  -->
<svg version="1.1" id="Layer_1" xmlns="http://www.w3.org/2000/svg" xmlns:xlink="http://www.w3.org/1999/xlink" x="0px" y="0px"
	 viewBox="0 0 64 64" style="enable-background:new 0 0 64 64;" xml:space="preserve">
<style type="text/css">
	.st0{fill:#69B445;}
</style>
<g id="XMLID_32_">
	<g id="XMLID_3_">
		<path id="XMLID_12_" class="st0" d="M32.1,1.5C15.3,1.5,1.6,15.1,1.6,31.9c0,1.2,0.1,2.3,0.2,3.5c5.8-3.6,23.8-15.2,30.6-23.3
			C39,19.9,55.9,31,62.3,35c0.1-1,0.2-2,0.2-3.1C62.5,15.1,48.9,1.5,32.1,1.5z M12.9,27L9,29.7v-9.9h3.9V27z"/>
		<g id="XMLID_4_">
			<path id="XMLID_5_" class="st0" d="M42.8,54c-0.2,0.1-0.5,0-0.6-0.2L40,48.7l-0.1,4.1h0l1.7,8.1c0.9-0.3,1.8-0.6,2.7-1L44.7,47
				l-0.2-5.5l-3.1,6.8c0,0.1,0,0.1-0.1,0.1c0.6,1.8,1.7,5,1.7,5C43.2,53.7,43,53.9,42.8,54z"/>
			<path id="XMLID_42_" class="st0" d="M36.7,62c1.1-0.2,2.2-0.4,3.3-0.7l-2.1-6.6L36.7,62z"/>
			<path id="XMLID_43_" class="st0" d="M46.4,58.8c1.2-0.6,2.4-1.4,3.5-2.2l-2.5-7.1L46.4,58.8z"/>
			<path id="XMLID_44_" class="st0" d="M33.5,51.3c-0.1,0.1-0.2,0.2-0.3,0.2c-0.9,0.5-0.9,0.3-1,1.1L32.1,55l1.6,6.8
				c0,0.1,0,0.4,0,0.4c0,0.1-0.1,0.1-0.1,0.2c0.5,0,1-0.1,1.6-0.1l0.9-9.4l-0.1-4.1l-2.1,4.8c-0.1,0.2-0.3,0.3-0.6,0.2
				c-0.2-0.1-0.3-0.4-0.2-0.6C32.9,53.2,33.2,52.3,33.5,51.3z"/>
			<path id="XMLID_45_" class="st0" d="M32.3,62.2c0,0-2-5.5-2-5.5s-1.4,5.2-1.4,5.2c0,0.1-0.1,0.2-0.2,0.3c1.1,0.1,2.3,0.2,3.5,0.2
				c0.1,0,0.2,0,0.3,0C32.3,62.3,32.3,62.2,32.3,62.2z"/>
			<path id="XMLID_46_" class="st0" d="M28.4,55l-0.1-2.3c-0.1-0.8-0.1-0.6-1-1.1c-0.8-0.5-2-2.3-2.4-2.9c-0.3,0-0.5-0.1-0.6-0.4
				l-4.1-6.5l1.7,10.4h-1.6l1.4,8.3c1.9,0.7,3.9,1.2,6,1.5c0-0.1-0.1-0.1-0.1-0.2c0,0,0-0.3,0-0.4L28.4,55z"/>
			<path id="XMLID_47_" class="st0" d="M17.4,52.2l-1.2,5.6c1.3,0.8,2.6,1.5,4,2.1l-2.2-7.7H17.4z"/>
			<path id="XMLID_50_" class="st0" d="M32.4,19.8c0,0-12,8.7-30.5,16C3,44.5,7.8,52.1,14.7,56.9l0.5-4.7h-1.6l1.7-10.4l-2.6,7.5
				c-0.1,0.3-0.5,0.4-0.8,0.3c-0.3-0.1-0.4-0.5-0.3-0.8c0,0,1.7-7.5,2.3-8.7c0.6-1.3,1.2-2,3.6-2h0.5c2.3,0,3,0.8,3.6,2
				c0.5,1.1,3.1,6.1,3.7,7.4c0.1,0,0.1,0.1,0.1,0.1c0.1,0.1,1.9,2.5,3.3,2.8c0.3,0,0.6-0.2,1.5-0.2h0.3c0.9,0,1.2,0.2,1.5,0.2
				c0.8-0.1,1.8-1.1,2.5-1.8c0.2-0.5,0.3-0.9,0.4-1.1c0.5-0.9,1.2-1.5,2.9-1.5h0.4c1.4,0,2.1,0.4,2.6,1c0.6-1.9,2-6.2,2.5-7.1
				c0.6-1.3,1.6-2,3.9-2h0.5c2.3,0,3.3,0.8,3.9,2c0.6,1.3,2.6,7.4,2.6,7.4c0.1,0.3,0,0.6-0.3,0.8c-0.3,0.1-0.6,0-0.8-0.3l-2.9-6.2
				L49.9,47h0l1.9,8.1c5.7-4.8,9.5-11.7,10.5-19.5C44.1,28.3,32.4,19.8,32.4,19.8z M17.7,37.5c-1.4,0-2.5-1.1-2.5-2.5
				c0-1.4,1.1-2.5,2.5-2.5c1.4,0,2.5,1.1,2.5,2.5C20.2,36.4,19,37.5,17.7,37.5z M27.1,25.6h4.7v2.8h-4.7V25.6z M27.1,29.7h4.7v3.8
				h-4.7V29.7z M30.2,49.8c-1,0-1.8-0.8-1.8-1.8c0-1,0.8-1.8,1.8-1.8c1,0,1.8,0.8,1.8,1.8C32,49,31.2,49.8,30.2,49.8z M33,25.6h4.7
				v2.8H33V25.6z M33,33.5v-3.8h4.7v3.8H33z M37.9,45.5c-1,0-1.9-0.8-1.9-1.9c0-1,0.8-1.9,1.9-1.9c1,0,1.9,0.8,1.9,1.9
				C39.8,44.7,38.9,45.5,37.9,45.5z M47.3,37.2c-1.4,0-2.5-1.1-2.5-2.5c0-1.4,1.1-2.5,2.5-2.5c1.4,0,2.5,1.1,2.5,2.5
				C49.8,36.1,48.7,37.2,47.3,37.2z"/>
		</g>
	</g>
	<g id="XMLID_33_">
		<defs>
			<circle id="XMLID_34_" cx="32.1" cy="31.9" r="30.4"/>
		</defs>
		<clipPath id="XMLID_2_">
			<use xlink:href="#XMLID_34_"  style="overflow:visible;"/>
		</clipPath>
	</g>
</g>
</svg>
